<svg width="123" height="29" viewBox="0 0 123 29" fill="none" xmlns="http://www.w3.org/2000/svg">
<rect x="0.280029" y="0.330078" width="122.72" height="28" rx="14" fill="#B56576"/>
<path d="M17.356 9.14826H18.8873V16.367C18.8873 17.0199 18.758 17.5784 18.4995 18.0424C18.2443 18.5065 17.8847 18.8611 17.4207 19.1064C16.9566 19.3483 16.4131 19.4693 15.79 19.4693C15.2166 19.4693 14.7012 19.3649 14.2438 19.1561C13.7897 18.9473 13.4301 18.644 13.165 18.2463C12.9031 17.8452 12.7722 17.358 12.7722 16.7846H14.2985C14.2985 17.0663 14.3631 17.31 14.4924 17.5154C14.625 17.7209 14.8056 17.8817 15.0343 17.9977C15.2663 18.1104 15.5314 18.1667 15.8297 18.1667C16.1546 18.1667 16.4297 18.0988 16.655 17.9629C16.8837 17.8237 17.0577 17.6199 17.177 17.3514C17.2964 17.0829 17.356 16.7548 17.356 16.367V9.14826ZM25.8413 16.1632V11.6937H27.3328V19.3301H25.8711V18.0076H25.7916C25.6159 18.4153 25.3342 18.755 24.9464 19.0268C24.5619 19.2953 24.083 19.4295 23.5096 19.4295C23.0191 19.4295 22.5849 19.3218 22.2071 19.1064C21.8325 18.8876 21.5375 18.5645 21.3221 18.1369C21.11 17.7093 21.0039 17.1807 21.0039 16.551V11.6937H22.4904V16.372C22.4904 16.8923 22.6346 17.3066 22.923 17.6149C23.2113 17.9231 23.5858 18.0772 24.0465 18.0772C24.325 18.0772 24.6017 18.0076 24.8768 17.8684C25.1552 17.7292 25.3856 17.5188 25.5678 17.237C25.7535 16.9553 25.8446 16.5974 25.8413 16.1632ZM30.8166 9.14826V19.3301H29.3301V9.14826H30.8166ZM33.7561 22.1937C33.534 22.1937 33.3318 22.1755 33.1495 22.139C32.9672 22.1059 32.8313 22.0694 32.7419 22.0297L33.0998 20.8116C33.3716 20.8845 33.6135 20.916 33.8257 20.9061C34.0378 20.8961 34.225 20.8166 34.3875 20.6674C34.5532 20.5183 34.699 20.2747 34.825 19.9366L35.0089 19.4295L32.2149 11.6937H33.8058L35.7397 17.6199H35.8193L37.7532 11.6937H39.3491L36.2021 20.3493C36.0562 20.747 35.8706 21.0834 35.6453 21.3585C35.4199 21.6369 35.1514 21.8457 34.8399 21.9849C34.5283 22.1241 34.167 22.1937 33.7561 22.1937ZM47.8716 19.4693C47.1591 19.4693 46.5293 19.3467 45.9824 19.1014C45.4389 18.8561 45.013 18.5181 44.7047 18.0872C44.3965 17.6563 44.244 17.1658 44.2474 16.6156C44.244 16.1847 44.3319 15.7886 44.5109 15.4274C44.6931 15.0628 44.9401 14.7595 45.2516 14.5176C45.5632 14.2723 45.9112 14.1165 46.2957 14.0502V13.9906C45.7886 13.868 45.3825 13.5962 45.0776 13.1752C44.7727 12.7543 44.6219 12.2704 44.6252 11.7235C44.6219 11.2032 44.7594 10.7392 45.0378 10.3315C45.3196 9.92051 45.7057 9.59736 46.1962 9.36204C46.6868 9.12672 47.2452 9.00906 47.8716 9.00906C48.4914 9.00906 49.0449 9.12837 49.5322 9.36701C50.0227 9.60233 50.4088 9.92549 50.6905 10.3365C50.9723 10.7441 51.1148 11.2065 51.1181 11.7235C51.1148 12.2704 50.959 12.7543 50.6508 13.1752C50.3425 13.5962 49.9415 13.868 49.4476 13.9906V14.0502C49.8288 14.1165 50.1718 14.2723 50.4768 14.5176C50.785 14.7595 51.0303 15.0628 51.2126 15.4274C51.3982 15.7886 51.4926 16.1847 51.4959 16.6156C51.4926 17.1658 51.3368 17.6563 51.0286 18.0872C50.7204 18.5181 50.2928 18.8561 49.7459 19.1014C49.2024 19.3467 48.5776 19.4693 47.8716 19.4693ZM47.8716 18.2115C48.2926 18.2115 48.6572 18.1419 48.9654 18.0027C49.2736 17.8601 49.5123 17.6629 49.6813 17.411C49.8503 17.1558 49.9365 16.8575 49.9398 16.5162C49.9365 16.1615 49.8437 15.8483 49.6614 15.5765C49.4824 15.3047 49.2388 15.091 48.9306 14.9352C48.6224 14.7794 48.2694 14.7015 47.8716 14.7015C47.4706 14.7015 47.1143 14.7794 46.8028 14.9352C46.4912 15.091 46.2459 15.3047 46.067 15.5765C45.888 15.8483 45.8002 16.1615 45.8035 16.5162C45.8002 16.8575 45.8814 17.1558 46.0471 17.411C46.2161 17.6629 46.4564 17.8601 46.768 18.0027C47.0795 18.1419 47.4474 18.2115 47.8716 18.2115ZM47.8716 13.4735C48.2097 13.4735 48.5097 13.4056 48.7715 13.2697C49.0333 13.1338 49.2388 12.9449 49.388 12.7029C49.5404 12.461 49.6183 12.1776 49.6216 11.8528C49.6183 11.5346 49.5421 11.2562 49.393 11.0176C49.2471 10.7789 49.0433 10.595 48.7815 10.4657C48.5196 10.3332 48.2163 10.2669 47.8716 10.2669C47.5203 10.2669 47.2121 10.3332 46.9469 10.4657C46.6851 10.595 46.4813 10.7789 46.3354 11.0176C46.1896 11.2562 46.1183 11.5346 46.1216 11.8528C46.1183 12.1776 46.1913 12.461 46.3404 12.7029C46.4895 12.9449 46.695 13.1338 46.9569 13.2697C47.222 13.4056 47.527 13.4735 47.8716 13.4735ZM57.7962 13.5929V14.8855H53.282V13.5929H57.7962ZM63.1431 9.00906C63.5972 9.01237 64.0446 9.09523 64.4855 9.25763C64.9263 9.42004 65.324 9.68519 65.6786 10.0531C66.0366 10.421 66.3216 10.9181 66.5338 11.5446C66.7492 12.1677 66.8586 12.9432 66.8619 13.8713C66.8619 14.7628 66.7724 15.5566 66.5934 16.2527C66.4144 16.9454 66.1576 17.5304 65.8228 18.0076C65.4914 18.4849 65.0887 18.8478 64.6147 19.0964C64.1408 19.345 63.6071 19.4693 63.0139 19.4693C62.4073 19.4693 61.8687 19.35 61.3981 19.1113C60.9275 18.8727 60.5446 18.5429 60.2497 18.122C59.9547 17.6977 59.7707 17.2105 59.6978 16.6603H61.2142C61.3136 17.0978 61.5158 17.4525 61.8207 17.7243C62.1289 17.9927 62.5267 18.127 63.0139 18.127C63.7596 18.127 64.3413 17.8021 64.7589 17.1525C65.1765 16.4996 65.387 15.5881 65.3903 14.4181H65.3107C65.1384 14.7032 64.923 14.9484 64.6644 15.1539C64.4092 15.3594 64.1225 15.5185 63.8044 15.6312C63.4862 15.7439 63.1464 15.8002 62.7852 15.8002C62.1985 15.8002 61.6649 15.6561 61.1843 15.3677C60.7037 15.0794 60.3209 14.6833 60.0359 14.1795C59.7509 13.6757 59.6083 13.1007 59.6083 12.4544C59.6083 11.8114 59.7542 11.228 60.0458 10.7044C60.3408 10.1807 60.7518 9.76639 61.2788 9.46147C61.8091 9.15323 62.4305 9.00243 63.1431 9.00906ZM63.1481 10.3017C62.7603 10.3017 62.4107 10.3978 62.0991 10.59C61.7909 10.7789 61.5473 11.0358 61.3683 11.3606C61.1893 11.6821 61.0998 12.0401 61.0998 12.4345C61.0998 12.8289 61.186 13.1868 61.3583 13.5083C61.534 13.8265 61.7726 14.0801 62.0742 14.269C62.3792 14.4546 62.7272 14.5474 63.1183 14.5474C63.4099 14.5474 63.6817 14.4911 63.9336 14.3784C64.1855 14.2657 64.4059 14.1099 64.5948 13.911C64.7838 13.7089 64.9312 13.4802 65.0373 13.225C65.1434 12.9698 65.1964 12.7013 65.1964 12.4196C65.1964 12.045 65.1069 11.697 64.9279 11.3755C64.7523 11.054 64.5103 10.7955 64.2021 10.6C63.8938 10.4011 63.5425 10.3017 63.1481 10.3017ZM70.2426 17.938L70.168 18.4799C70.1183 18.8777 70.0338 19.292 69.9144 19.7228C69.7984 20.157 69.6775 20.5597 69.5515 20.9309C69.4289 21.3021 69.3278 21.5971 69.2482 21.8159H68.1943C68.2374 21.6104 68.297 21.332 68.3732 20.9806C68.4495 20.6326 68.5241 20.2432 68.597 19.8123C68.6699 19.3815 68.7246 18.9423 68.761 18.4949L68.8107 17.938H70.2426ZM75.8629 19.3301V18.2164L79.3083 14.6468C79.6762 14.2591 79.9794 13.9193 80.2181 13.6277C80.46 13.3327 80.6406 13.0526 80.76 12.7875C80.8793 12.5223 80.9389 12.2406 80.9389 11.9423C80.9389 11.6042 80.8594 11.3126 80.7003 11.0673C80.5412 10.8187 80.3241 10.6281 80.049 10.4956C79.7739 10.3597 79.464 10.2917 79.1193 10.2917C78.7548 10.2917 78.4366 10.3663 78.1648 10.5154C77.893 10.6646 77.6842 10.8751 77.5384 11.1468C77.3925 11.4186 77.3196 11.7368 77.3196 12.1014H75.853C75.853 11.4816 75.9955 10.9397 76.2806 10.4757C76.5656 10.0117 76.9567 9.65205 77.4539 9.39684C77.951 9.13832 78.5161 9.00906 79.1492 9.00906C79.7888 9.00906 80.3523 9.13666 80.8395 9.39187C81.33 9.64376 81.7129 9.98846 81.9879 10.426C82.263 10.8601 82.4006 11.3507 82.4006 11.8975C82.4006 12.2754 82.3293 12.6449 82.1868 13.0062C82.0476 13.3675 81.804 13.7702 81.456 14.2143C81.108 14.6551 80.6241 15.1904 80.0043 15.8201L77.9808 17.938V18.0126H82.5647V19.3301H75.8629ZM87.9936 19.4991C87.2081 19.4958 86.537 19.2886 85.9801 18.8777C85.4233 18.4667 84.9974 17.8684 84.7024 17.0829C84.4075 16.2974 84.26 15.3511 84.26 14.2441C84.26 13.1404 84.4075 12.1975 84.7024 11.4153C85.0007 10.6331 85.4283 10.0365 85.9851 9.62553C86.5452 9.21455 87.2147 9.00906 87.9936 9.00906C88.7725 9.00906 89.4404 9.2162 89.9972 9.6305C90.554 10.0415 90.9799 10.6381 91.2749 11.4203C91.5732 12.1992 91.7223 13.1404 91.7223 14.2441C91.7223 15.3545 91.5748 16.3024 91.2799 17.0879C90.9849 17.8701 90.559 18.4683 90.0022 18.8826C89.4453 19.2936 88.7758 19.4991 87.9936 19.4991ZM87.9936 18.1717C88.683 18.1717 89.2216 17.8353 89.6094 17.1625C90.0005 16.4896 90.196 15.5169 90.196 14.2441C90.196 13.399 90.1066 12.6847 89.9276 12.1014C89.7519 11.5147 89.4984 11.0706 89.1669 10.769C88.8388 10.4641 88.4477 10.3116 87.9936 10.3116C87.3076 10.3116 86.769 10.6497 86.3779 11.3258C85.9868 12.002 85.7896 12.9747 85.7862 14.2441C85.7862 15.0926 85.8741 15.8102 86.0497 16.3968C86.2287 16.9802 86.4823 17.4226 86.8104 17.7243C87.1385 18.0225 87.5329 18.1717 87.9936 18.1717ZM93.486 19.3301V18.2164L96.9313 14.6468C97.2992 14.2591 97.6025 13.9193 97.8411 13.6277C98.0831 13.3327 98.2637 13.0526 98.383 12.7875C98.5023 12.5223 98.562 12.2406 98.562 11.9423C98.562 11.6042 98.4824 11.3126 98.3234 11.0673C98.1643 10.8187 97.9472 10.6281 97.6721 10.4956C97.397 10.3597 97.0871 10.2917 96.7424 10.2917C96.3778 10.2917 96.0596 10.3663 95.7878 10.5154C95.5161 10.6646 95.3073 10.8751 95.1614 11.1468C95.0156 11.4186 94.9427 11.7368 94.9427 12.1014H93.4761C93.4761 11.4816 93.6186 10.9397 93.9036 10.4757C94.1886 10.0117 94.5797 9.65205 95.0769 9.39684C95.5741 9.13832 96.1392 9.00906 96.7722 9.00906C97.4119 9.00906 97.9753 9.13666 98.4626 9.39187C98.9531 9.64376 99.3359 9.98846 99.611 10.426C99.8861 10.8601 100.024 11.3507 100.024 11.8975C100.024 12.2754 99.9524 12.6449 99.8099 13.0062C99.6707 13.3675 99.427 13.7702 99.079 14.2143C98.731 14.6551 98.2471 15.1904 97.6273 15.8201L95.6039 17.938V18.0126H100.188V19.3301H93.486ZM105.617 19.4693C104.934 19.4693 104.324 19.3516 103.787 19.1163C103.254 18.881 102.831 18.5545 102.519 18.1369C102.211 17.716 102.045 17.2288 102.022 16.6752H103.583C103.603 16.9769 103.704 17.2387 103.887 17.4608C104.072 17.6795 104.314 17.8485 104.612 17.9679C104.911 18.0872 105.242 18.1468 105.607 18.1468C106.008 18.1468 106.362 18.0772 106.671 17.938C106.982 17.7988 107.226 17.6049 107.401 17.3564C107.577 17.1045 107.665 16.8145 107.665 16.4863C107.665 16.1449 107.577 15.845 107.401 15.5865C107.229 15.3246 106.976 15.1191 106.641 14.97C106.309 14.8208 105.908 14.7463 105.438 14.7463H104.578V13.4934H105.438C105.816 13.4934 106.147 13.4255 106.432 13.2896C106.72 13.1537 106.946 12.9648 107.108 12.7228C107.271 12.4776 107.352 12.1909 107.352 11.8627C107.352 11.5479 107.281 11.2744 107.138 11.0424C106.999 10.8071 106.8 10.6232 106.541 10.4906C106.286 10.358 105.985 10.2917 105.637 10.2917C105.305 10.2917 104.995 10.353 104.707 10.4757C104.422 10.595 104.19 10.7673 104.011 10.9927C103.832 11.2148 103.736 11.4816 103.723 11.7931H102.236C102.253 11.243 102.415 10.7591 102.723 10.3414C103.035 9.92383 103.446 9.59736 103.956 9.36204C104.467 9.12672 105.033 9.00906 105.656 9.00906C106.309 9.00906 106.873 9.13666 107.347 9.39187C107.824 9.64376 108.192 9.98017 108.45 10.4011C108.712 10.822 108.842 11.2827 108.838 11.7832C108.842 12.3533 108.682 12.8372 108.361 13.2349C108.043 13.6326 107.619 13.8994 107.088 14.0353V14.1149C107.764 14.2176 108.288 14.4861 108.659 14.9203C109.034 15.3545 109.219 15.8931 109.216 16.536C109.219 17.0962 109.064 17.5983 108.749 18.0424C108.437 18.4866 108.011 18.8362 107.471 19.0914C106.931 19.3433 106.313 19.4693 105.617 19.4693Z" fill="white"/>
</svg>
