<svg width="40" height="40" viewBox="0 0 40 40" fill="none" xmlns="http://www.w3.org/2000/svg">
<path d="M20 3.33331C10.8 3.33331 3.33337 10.8 3.33337 20C3.33337 29.2 10.8 36.6666 20 36.6666C29.2 36.6666 36.6667 29.2 36.6667 20C36.6667 10.8 29.2 3.33331 20 3.33331ZM20 33.3333C12.65 33.3333 6.66671 27.35 6.66671 20C6.66671 12.65 12.65 6.66665 20 6.66665C27.35 6.66665 33.3334 12.65 33.3334 20C33.3334 27.35 27.35 33.3333 20 33.3333ZM20 9.99998C14.4834 9.99998 10 14.4833 10 20C10 25.5166 14.4834 30 20 30C25.5167 30 30 25.5166 30 20C30 14.4833 25.5167 9.99998 20 9.99998ZM20 26.6666C16.3167 26.6666 13.3334 23.6833 13.3334 20C13.3334 16.3166 16.3167 13.3333 20 13.3333C23.6834 13.3333 26.6667 16.3166 26.6667 20C26.6667 23.6833 23.6834 26.6666 20 26.6666Z" fill="#6D597A"/>
</svg>
